<?xml version="1.0" encoding="utf-8"?>
<svg version="1.1" xmlns:xlink="http://www.w3.org/1999/xlink" width="146px" height="179px" xmlns="http://www.w3.org/2000/svg">
  <g transform="matrix(1 0 0 1 -662 -384 )">
    <path d="M 662.5 497.735632183908  C 662.5 497.735632183908  662.5 404  662.5 404  C 662.5 393.2304473783  671.2304473783 384.5  682 384.5  C 682 384.5  788 384.5  788 384.5  C 798.7695526217 384.5  807.5 393.2304473783  807.5 404  C 807.5 404  807.5 497.735632183908  807.5 497.735632183908  C 807.5 508.505184805609  798.7695526217 517.235632183908  788 517.235632183908  C 788 517.235632183908  703.221156328619 517.235632183908  703.221156328619 517.235632183908  C 703.221156328619 517.235632183908  695.027693751309 559.392066338404  695.027693751309 559.392066338404  C 695.027693751309 559.392066338404  684.019535794499 517.235632183908  684.019535794499 517.235632183908  C 684.019535794499 517.235632183908  682 517.235632183908  682 517.235632183908  C 671.2304473783 517.235632183908  662.5 508.505184805609  662.5 497.735632183908  Z " fill-rule="nonzero" fill="#ffffff" stroke="none" />
    <path d="M 662 497.735632183908  C 662 497.735632183908  662 404  662 404  C 662 392.954305003384  670.954305003384 384  682 384  C 682 384  788 384  788 384  C 799.045694996616 384  808 392.954305003384  808 404  C 808 404  808 497.735632183908  808 497.735632183908  C 808 508.781327180524  799.045694996616 517.735632183908  788 517.735632183908  C 788 517.735632183908  703.633333333333 517.735632183908  703.633333333333 517.735632183908  C 703.633333333333 517.735632183908  695.099196787149 561.644878364028  695.099196787149 561.644878364028  C 695.099196787149 561.644878364028  683.633333333333 517.735632183908  683.633333333333 517.735632183908  C 683.633333333333 517.735632183908  682 517.735632183908  682 517.735632183908  C 670.954305003384 517.735632183908  662 508.781327180524  662 497.735632183908  Z M 663 497.735632183908  C 663 508.229042430693  671.506589753215 516.735632183908  682 516.735632183908  C 682 516.735632183908  684.405738255665 516.735632183908  684.405738255665 516.735632183908  C 684.405738255665 516.735632183908  694.956190715469 557.13925431278  694.956190715469 557.13925431278  C 694.956190715469 557.13925431278  702.808979323905 516.735632183908  702.808979323905 516.735632183908  C 702.808979323905 516.735632183908  788 516.735632183908  788 516.735632183908  C 798.493410246785 516.735632183908  807 508.229042430693  807 497.735632183908  C 807 497.735632183908  807 404  807 404  C 807 393.506589753215  798.493410246785 385  788 385  C 788 385  682 385  682 385  C 671.506589753215 385  663 393.506589753215  663 404  C 663 404  663 497.735632183908  663 497.735632183908  Z " fill-rule="nonzero" fill="#797979" stroke="none" />
  </g>
</svg>